<?xml version="1.0" encoding="utf-8" standalone="no"?>
<!DOCTYPE svg PUBLIC "-//W3C//DTD SVG 1.1//EN"
  "http://www.w3.org/Graphics/SVG/1.1/DTD/svg11.dtd">
<svg xmlns:xlink="http://www.w3.org/1999/xlink" width="720pt" height="288pt" viewBox="0 0 720 288" xmlns="http://www.w3.org/2000/svg" version="1.1">
 <metadata>
  <rdf:RDF xmlns:dc="http://purl.org/dc/elements/1.1/" xmlns:cc="http://creativecommons.org/ns#" xmlns:rdf="http://www.w3.org/1999/02/22-rdf-syntax-ns#">
   <cc:Work>
    <dc:type rdf:resource="http://purl.org/dc/dcmitype/StillImage"/>
    <dc:date>2024-03-12T10:08:20.962354</dc:date>
    <dc:format>image/svg+xml</dc:format>
    <dc:creator>
     <cc:Agent>
      <dc:title>Matplotlib v3.8.0, https://matplotlib.org/</dc:title>
     </cc:Agent>
    </dc:creator>
   </cc:Work>
  </rdf:RDF>
 </metadata>
 <defs>
  <style type="text/css">*{stroke-linejoin: round; stroke-linecap: butt}</style>
 </defs>
 <g id="figure_1">
  <g id="patch_1">
   <path d="M 0 288 
L 720 288 
L 720 0 
L 0 0 
z
" style="fill: #ffffff"/>
  </g>
  <g id="axes_1">
   <g id="patch_2">
    <path d="M 90 256.32 
L 648 256.32 
L 648 34.56 
L 90 34.56 
z
" style="fill: #ffffff"/>
   </g>
   <g id="PathCollection_1">
    <defs>
     <path id="m472042721e" d="M 0 3 
C 0.795609 3 1.55874 2.683901 2.12132 2.12132 
C 2.683901 1.55874 3 0.795609 3 0 
C 3 -0.795609 2.683901 -1.55874 2.12132 -2.12132 
C 1.55874 -2.683901 0.795609 -3 0 -3 
C -0.795609 -3 -1.55874 -2.683901 -2.12132 -2.12132 
C -2.683901 -1.55874 -3 -0.795609 -3 0 
C -3 0.795609 -2.683901 1.55874 -2.12132 2.12132 
C -1.55874 2.683901 -0.795609 3 0 3 
z
" style="stroke: #1f77b4"/>
    </defs>
    <g clip-path="url(#p39e72a77a8)">
     <use xlink:href="#m472042721e" x="364.35894" y="69.541356" style="fill: #1f77b4; stroke: #1f77b4"/>
     <use xlink:href="#m472042721e" x="450.281774" y="84.326694" style="fill: #1f77b4; stroke: #1f77b4"/>
     <use xlink:href="#m472042721e" x="203.229821" y="122.946146" style="fill: #1f77b4; stroke: #1f77b4"/>
     <use xlink:href="#m472042721e" x="459.278197" y="102.253597" style="fill: #1f77b4; stroke: #1f77b4"/>
     <use xlink:href="#m472042721e" x="362.54989" y="124.955952" style="fill: #1f77b4; stroke: #1f77b4"/>
     <use xlink:href="#m472042721e" x="525.475262" y="59.355241" style="fill: #1f77b4; stroke: #1f77b4"/>
     <use xlink:href="#m472042721e" x="307.066605" y="82.413576" style="fill: #1f77b4; stroke: #1f77b4"/>
     <use xlink:href="#m472042721e" x="404.745597" y="106.289138" style="fill: #1f77b4; stroke: #1f77b4"/>
     <use xlink:href="#m472042721e" x="506.253804" y="131.806842" style="fill: #1f77b4; stroke: #1f77b4"/>
     <use xlink:href="#m472042721e" x="355.027668" y="211.313331" style="fill: #1f77b4; stroke: #1f77b4"/>
     <use xlink:href="#m472042721e" x="308.301871" y="204.050794" style="fill: #1f77b4; stroke: #1f77b4"/>
     <use xlink:href="#m472042721e" x="548.889185" y="161.872753" style="fill: #1f77b4; stroke: #1f77b4"/>
     <use xlink:href="#m472042721e" x="525.636038" y="106.238849" style="fill: #1f77b4; stroke: #1f77b4"/>
     <use xlink:href="#m472042721e" x="309.053245" y="122.926054" style="fill: #1f77b4; stroke: #1f77b4"/>
     <use xlink:href="#m472042721e" x="269.216708" y="187.274761" style="fill: #1f77b4; stroke: #1f77b4"/>
     <use xlink:href="#m472042721e" x="399.026713" y="106.742955" style="fill: #1f77b4; stroke: #1f77b4"/>
     <use xlink:href="#m472042721e" x="371.081684" y="122.354382" style="fill: #1f77b4; stroke: #1f77b4"/>
     <use xlink:href="#m472042721e" x="307.497841" y="66.493361" style="fill: #1f77b4; stroke: #1f77b4"/>
     <use xlink:href="#m472042721e" x="318.212588" y="166.241444" style="fill: #1f77b4; stroke: #1f77b4"/>
     <use xlink:href="#m472042721e" x="238.223609" y="125.988936" style="fill: #1f77b4; stroke: #1f77b4"/>
     <use xlink:href="#m472042721e" x="429.736541" y="136.77776" style="fill: #1f77b4; stroke: #1f77b4"/>
     <use xlink:href="#m472042721e" x="393.762744" y="136.898867" style="fill: #1f77b4; stroke: #1f77b4"/>
     <use xlink:href="#m472042721e" x="493.506596" y="161.842603" style="fill: #1f77b4; stroke: #1f77b4"/>
     <use xlink:href="#m472042721e" x="340.405929" y="70.258567" style="fill: #1f77b4; stroke: #1f77b4"/>
     <use xlink:href="#m472042721e" x="347.52192" y="144.672492" style="fill: #1f77b4; stroke: #1f77b4"/>
     <use xlink:href="#m472042721e" x="182.422892" y="92.57998" style="fill: #1f77b4; stroke: #1f77b4"/>
     <use xlink:href="#m472042721e" x="416.795925" y="155.785124" style="fill: #1f77b4; stroke: #1f77b4"/>
     <use xlink:href="#m472042721e" x="199.94425" y="216.671593" style="fill: #1f77b4; stroke: #1f77b4"/>
     <use xlink:href="#m472042721e" x="251.176972" y="109.833232" style="fill: #1f77b4; stroke: #1f77b4"/>
     <use xlink:href="#m472042721e" x="417.662727" y="49.609901" style="fill: #1f77b4; stroke: #1f77b4"/>
     <use xlink:href="#m472042721e" x="260.433897" y="125.950878" style="fill: #1f77b4; stroke: #1f77b4"/>
     <use xlink:href="#m472042721e" x="319.82324" y="107.158129" style="fill: #1f77b4; stroke: #1f77b4"/>
     <use xlink:href="#m472042721e" x="310.455887" y="145.830934" style="fill: #1f77b4; stroke: #1f77b4"/>
     <use xlink:href="#m472042721e" x="115.363636" y="246.24" style="fill: #1f77b4; stroke: #1f77b4"/>
     <use xlink:href="#m472042721e" x="258.672147" y="169.01204" style="fill: #1f77b4; stroke: #1f77b4"/>
     <use xlink:href="#m472042721e" x="121.956652" y="52.747085" style="fill: #1f77b4; stroke: #1f77b4"/>
     <use xlink:href="#m472042721e" x="450.062732" y="156.561116" style="fill: #1f77b4; stroke: #1f77b4"/>
     <use xlink:href="#m472042721e" x="463.492291" y="183.443671" style="fill: #1f77b4; stroke: #1f77b4"/>
     <use xlink:href="#m472042721e" x="498.981461" y="61.310647" style="fill: #1f77b4; stroke: #1f77b4"/>
     <use xlink:href="#m472042721e" x="181.88971" y="63.970046" style="fill: #1f77b4; stroke: #1f77b4"/>
     <use xlink:href="#m472042721e" x="354.404817" y="202.866972" style="fill: #1f77b4; stroke: #1f77b4"/>
     <use xlink:href="#m472042721e" x="334.88067" y="86.878413" style="fill: #1f77b4; stroke: #1f77b4"/>
     <use xlink:href="#m472042721e" x="482.22785" y="133.788379" style="fill: #1f77b4; stroke: #1f77b4"/>
     <use xlink:href="#m472042721e" x="204.19805" y="105.123109" style="fill: #1f77b4; stroke: #1f77b4"/>
     <use xlink:href="#m472042721e" x="355.500693" y="69.386806" style="fill: #1f77b4; stroke: #1f77b4"/>
     <use xlink:href="#m472042721e" x="524.589221" y="104.201509" style="fill: #1f77b4; stroke: #1f77b4"/>
     <use xlink:href="#m472042721e" x="185.546547" y="188.22803" style="fill: #1f77b4; stroke: #1f77b4"/>
     <use xlink:href="#m472042721e" x="566.20835" y="104.657093" style="fill: #1f77b4; stroke: #1f77b4"/>
     <use xlink:href="#m472042721e" x="467.219634" y="80.203855" style="fill: #1f77b4; stroke: #1f77b4"/>
     <use xlink:href="#m472042721e" x="417.473543" y="44.64" style="fill: #1f77b4; stroke: #1f77b4"/>
     <use xlink:href="#m472042721e" x="390.00699" y="101.449326" style="fill: #1f77b4; stroke: #1f77b4"/>
     <use xlink:href="#m472042721e" x="240.744463" y="151.909517" style="fill: #1f77b4; stroke: #1f77b4"/>
     <use xlink:href="#m472042721e" x="352.452378" y="115.371215" style="fill: #1f77b4; stroke: #1f77b4"/>
     <use xlink:href="#m472042721e" x="419.210973" y="109.615067" style="fill: #1f77b4; stroke: #1f77b4"/>
     <use xlink:href="#m472042721e" x="202.269442" y="101.333161" style="fill: #1f77b4; stroke: #1f77b4"/>
     <use xlink:href="#m472042721e" x="292.348178" y="179.419039" style="fill: #1f77b4; stroke: #1f77b4"/>
     <use xlink:href="#m472042721e" x="119.162345" y="110.147559" style="fill: #1f77b4; stroke: #1f77b4"/>
     <use xlink:href="#m472042721e" x="397.809536" y="117.381464" style="fill: #1f77b4; stroke: #1f77b4"/>
     <use xlink:href="#m472042721e" x="416.709665" y="56.364241" style="fill: #1f77b4; stroke: #1f77b4"/>
     <use xlink:href="#m472042721e" x="238.64915" y="169.626859" style="fill: #1f77b4; stroke: #1f77b4"/>
     <use xlink:href="#m472042721e" x="365.770083" y="84.891153" style="fill: #1f77b4; stroke: #1f77b4"/>
     <use xlink:href="#m472042721e" x="352.661985" y="83.986788" style="fill: #1f77b4; stroke: #1f77b4"/>
     <use xlink:href="#m472042721e" x="500.281844" y="138.695953" style="fill: #1f77b4; stroke: #1f77b4"/>
     <use xlink:href="#m472042721e" x="412.978897" y="129.714849" style="fill: #1f77b4; stroke: #1f77b4"/>
     <use xlink:href="#m472042721e" x="371.210737" y="174.675334" style="fill: #1f77b4; stroke: #1f77b4"/>
     <use xlink:href="#m472042721e" x="361.06747" y="200.224319" style="fill: #1f77b4; stroke: #1f77b4"/>
     <use xlink:href="#m472042721e" x="220.289071" y="117.661372" style="fill: #1f77b4; stroke: #1f77b4"/>
     <use xlink:href="#m472042721e" x="245.792335" y="166.19267" style="fill: #1f77b4; stroke: #1f77b4"/>
     <use xlink:href="#m472042721e" x="319.686077" y="78.014758" style="fill: #1f77b4; stroke: #1f77b4"/>
     <use xlink:href="#m472042721e" x="226.166133" y="226.297504" style="fill: #1f77b4; stroke: #1f77b4"/>
     <use xlink:href="#m472042721e" x="466.256883" y="144.618767" style="fill: #1f77b4; stroke: #1f77b4"/>
     <use xlink:href="#m472042721e" x="146.660175" y="210.118006" style="fill: #1f77b4; stroke: #1f77b4"/>
     <use xlink:href="#m472042721e" x="390.352643" y="143.92624" style="fill: #1f77b4; stroke: #1f77b4"/>
     <use xlink:href="#m472042721e" x="256.347637" y="148.66685" style="fill: #1f77b4; stroke: #1f77b4"/>
     <use xlink:href="#m472042721e" x="242.296168" y="168.160755" style="fill: #1f77b4; stroke: #1f77b4"/>
     <use xlink:href="#m472042721e" x="218.270564" y="174.15792" style="fill: #1f77b4; stroke: #1f77b4"/>
     <use xlink:href="#m472042721e" x="294.628545" y="128.238004" style="fill: #1f77b4; stroke: #1f77b4"/>
     <use xlink:href="#m472042721e" x="622.636364" y="134.393545" style="fill: #1f77b4; stroke: #1f77b4"/>
     <use xlink:href="#m472042721e" x="459.291475" y="79.609597" style="fill: #1f77b4; stroke: #1f77b4"/>
     <use xlink:href="#m472042721e" x="254.145982" y="167.332489" style="fill: #1f77b4; stroke: #1f77b4"/>
     <use xlink:href="#m472042721e" x="480.406145" y="150.308981" style="fill: #1f77b4; stroke: #1f77b4"/>
     <use xlink:href="#m472042721e" x="253.890023" y="136.752403" style="fill: #1f77b4; stroke: #1f77b4"/>
     <use xlink:href="#m472042721e" x="417.631267" y="155.047118" style="fill: #1f77b4; stroke: #1f77b4"/>
     <use xlink:href="#m472042721e" x="297.883929" y="151.566456" style="fill: #1f77b4; stroke: #1f77b4"/>
     <use xlink:href="#m472042721e" x="350.224799" y="51.101509" style="fill: #1f77b4; stroke: #1f77b4"/>
     <use xlink:href="#m472042721e" x="378.723966" y="219.867001" style="fill: #1f77b4; stroke: #1f77b4"/>
     <use xlink:href="#m472042721e" x="341.418703" y="72.378505" style="fill: #1f77b4; stroke: #1f77b4"/>
     <use xlink:href="#m472042721e" x="444.032054" y="183.714548" style="fill: #1f77b4; stroke: #1f77b4"/>
     <use xlink:href="#m472042721e" x="353.568887" y="161.086258" style="fill: #1f77b4; stroke: #1f77b4"/>
     <use xlink:href="#m472042721e" x="356.287649" y="119.496223" style="fill: #1f77b4; stroke: #1f77b4"/>
     <use xlink:href="#m472042721e" x="262.583202" y="118.545396" style="fill: #1f77b4; stroke: #1f77b4"/>
     <use xlink:href="#m472042721e" x="316.76772" y="119.843859" style="fill: #1f77b4; stroke: #1f77b4"/>
     <use xlink:href="#m472042721e" x="312.715913" y="141.091833" style="fill: #1f77b4; stroke: #1f77b4"/>
     <use xlink:href="#m472042721e" x="356.041256" y="138.74712" style="fill: #1f77b4; stroke: #1f77b4"/>
     <use xlink:href="#m472042721e" x="321.312101" y="112.941268" style="fill: #1f77b4; stroke: #1f77b4"/>
     <use xlink:href="#m472042721e" x="504.168358" y="125.394883" style="fill: #1f77b4; stroke: #1f77b4"/>
     <use xlink:href="#m472042721e" x="562.916798" y="63.951234" style="fill: #1f77b4; stroke: #1f77b4"/>
     <use xlink:href="#m472042721e" x="214.859982" y="207.660118" style="fill: #1f77b4; stroke: #1f77b4"/>
     <use xlink:href="#m472042721e" x="128.373419" y="147.53" style="fill: #1f77b4; stroke: #1f77b4"/>
     <use xlink:href="#m472042721e" x="380.164085" y="136.662195" style="fill: #1f77b4; stroke: #1f77b4"/>
    </g>
   </g>
   <g id="matplotlib.axis_1">
    <g id="xtick_1">
     <g id="line2d_1">
      <defs>
       <path id="m86b30e7555" d="M 0 0 
L 0 3.5 
" style="stroke: #000000; stroke-width: 0.8"/>
      </defs>
      <g>
       <use xlink:href="#m86b30e7555" x="106.190505" y="256.32" style="stroke: #000000; stroke-width: 0.8"/>
      </g>
     </g>
     <g id="text_1">
      <!-- −2 -->
      <g transform="translate(98.819411 270.918437) scale(0.1 -0.1)">
       <defs>
        <path id="DejaVuSans-2212" d="M 678 2272 
L 4684 2272 
L 4684 1741 
L 678 1741 
L 678 2272 
z
" transform="scale(0.015625)"/>
        <path id="DejaVuSans-32" d="M 1228 531 
L 3431 531 
L 3431 0 
L 469 0 
L 469 531 
Q 828 903 1448 1529 
Q 2069 2156 2228 2338 
Q 2531 2678 2651 2914 
Q 2772 3150 2772 3378 
Q 2772 3750 2511 3984 
Q 2250 4219 1831 4219 
Q 1534 4219 1204 4116 
Q 875 4013 500 3803 
L 500 4441 
Q 881 4594 1212 4672 
Q 1544 4750 1819 4750 
Q 2544 4750 2975 4387 
Q 3406 4025 3406 3419 
Q 3406 3131 3298 2873 
Q 3191 2616 2906 2266 
Q 2828 2175 2409 1742 
Q 1991 1309 1228 531 
z
" transform="scale(0.015625)"/>
       </defs>
       <use xlink:href="#DejaVuSans-2212"/>
       <use xlink:href="#DejaVuSans-32" x="83.789062"/>
      </g>
     </g>
    </g>
    <g id="xtick_2">
     <g id="line2d_2">
      <g>
       <use xlink:href="#m86b30e7555" x="224.486299" y="256.32" style="stroke: #000000; stroke-width: 0.8"/>
      </g>
     </g>
     <g id="text_2">
      <!-- −1 -->
      <g transform="translate(217.115205 270.918437) scale(0.1 -0.1)">
       <defs>
        <path id="DejaVuSans-31" d="M 794 531 
L 1825 531 
L 1825 4091 
L 703 3866 
L 703 4441 
L 1819 4666 
L 2450 4666 
L 2450 531 
L 3481 531 
L 3481 0 
L 794 0 
L 794 531 
z
" transform="scale(0.015625)"/>
       </defs>
       <use xlink:href="#DejaVuSans-2212"/>
       <use xlink:href="#DejaVuSans-31" x="83.789062"/>
      </g>
     </g>
    </g>
    <g id="xtick_3">
     <g id="line2d_3">
      <g>
       <use xlink:href="#m86b30e7555" x="342.782093" y="256.32" style="stroke: #000000; stroke-width: 0.8"/>
      </g>
     </g>
     <g id="text_3">
      <!-- 0 -->
      <g transform="translate(339.600843 270.918437) scale(0.1 -0.1)">
       <defs>
        <path id="DejaVuSans-30" d="M 2034 4250 
Q 1547 4250 1301 3770 
Q 1056 3291 1056 2328 
Q 1056 1369 1301 889 
Q 1547 409 2034 409 
Q 2525 409 2770 889 
Q 3016 1369 3016 2328 
Q 3016 3291 2770 3770 
Q 2525 4250 2034 4250 
z
M 2034 4750 
Q 2819 4750 3233 4129 
Q 3647 3509 3647 2328 
Q 3647 1150 3233 529 
Q 2819 -91 2034 -91 
Q 1250 -91 836 529 
Q 422 1150 422 2328 
Q 422 3509 836 4129 
Q 1250 4750 2034 4750 
z
" transform="scale(0.015625)"/>
       </defs>
       <use xlink:href="#DejaVuSans-30"/>
      </g>
     </g>
    </g>
    <g id="xtick_4">
     <g id="line2d_4">
      <g>
       <use xlink:href="#m86b30e7555" x="461.077888" y="256.32" style="stroke: #000000; stroke-width: 0.8"/>
      </g>
     </g>
     <g id="text_4">
      <!-- 1 -->
      <g transform="translate(457.896638 270.918437) scale(0.1 -0.1)">
       <use xlink:href="#DejaVuSans-31"/>
      </g>
     </g>
    </g>
    <g id="xtick_5">
     <g id="line2d_5">
      <g>
       <use xlink:href="#m86b30e7555" x="579.373682" y="256.32" style="stroke: #000000; stroke-width: 0.8"/>
      </g>
     </g>
     <g id="text_5">
      <!-- 2 -->
      <g transform="translate(576.192432 270.918437) scale(0.1 -0.1)">
       <use xlink:href="#DejaVuSans-32"/>
      </g>
     </g>
    </g>
    <g id="text_6">
     <!-- Feature -->
     <g transform="translate(350.110156 284.596563) scale(0.1 -0.1)">
      <defs>
       <path id="DejaVuSans-46" d="M 628 4666 
L 3309 4666 
L 3309 4134 
L 1259 4134 
L 1259 2759 
L 3109 2759 
L 3109 2228 
L 1259 2228 
L 1259 0 
L 628 0 
L 628 4666 
z
" transform="scale(0.015625)"/>
       <path id="DejaVuSans-65" d="M 3597 1894 
L 3597 1613 
L 953 1613 
Q 991 1019 1311 708 
Q 1631 397 2203 397 
Q 2534 397 2845 478 
Q 3156 559 3463 722 
L 3463 178 
Q 3153 47 2828 -22 
Q 2503 -91 2169 -91 
Q 1331 -91 842 396 
Q 353 884 353 1716 
Q 353 2575 817 3079 
Q 1281 3584 2069 3584 
Q 2775 3584 3186 3129 
Q 3597 2675 3597 1894 
z
M 3022 2063 
Q 3016 2534 2758 2815 
Q 2500 3097 2075 3097 
Q 1594 3097 1305 2825 
Q 1016 2553 972 2059 
L 3022 2063 
z
" transform="scale(0.015625)"/>
       <path id="DejaVuSans-61" d="M 2194 1759 
Q 1497 1759 1228 1600 
Q 959 1441 959 1056 
Q 959 750 1161 570 
Q 1363 391 1709 391 
Q 2188 391 2477 730 
Q 2766 1069 2766 1631 
L 2766 1759 
L 2194 1759 
z
M 3341 1997 
L 3341 0 
L 2766 0 
L 2766 531 
Q 2569 213 2275 61 
Q 1981 -91 1556 -91 
Q 1019 -91 701 211 
Q 384 513 384 1019 
Q 384 1609 779 1909 
Q 1175 2209 1959 2209 
L 2766 2209 
L 2766 2266 
Q 2766 2663 2505 2880 
Q 2244 3097 1772 3097 
Q 1472 3097 1187 3025 
Q 903 2953 641 2809 
L 641 3341 
Q 956 3463 1253 3523 
Q 1550 3584 1831 3584 
Q 2591 3584 2966 3190 
Q 3341 2797 3341 1997 
z
" transform="scale(0.015625)"/>
       <path id="DejaVuSans-74" d="M 1172 4494 
L 1172 3500 
L 2356 3500 
L 2356 3053 
L 1172 3053 
L 1172 1153 
Q 1172 725 1289 603 
Q 1406 481 1766 481 
L 2356 481 
L 2356 0 
L 1766 0 
Q 1100 0 847 248 
Q 594 497 594 1153 
L 594 3053 
L 172 3053 
L 172 3500 
L 594 3500 
L 594 4494 
L 1172 4494 
z
" transform="scale(0.015625)"/>
       <path id="DejaVuSans-75" d="M 544 1381 
L 544 3500 
L 1119 3500 
L 1119 1403 
Q 1119 906 1312 657 
Q 1506 409 1894 409 
Q 2359 409 2629 706 
Q 2900 1003 2900 1516 
L 2900 3500 
L 3475 3500 
L 3475 0 
L 2900 0 
L 2900 538 
Q 2691 219 2414 64 
Q 2138 -91 1772 -91 
Q 1169 -91 856 284 
Q 544 659 544 1381 
z
M 1991 3584 
L 1991 3584 
z
" transform="scale(0.015625)"/>
       <path id="DejaVuSans-72" d="M 2631 2963 
Q 2534 3019 2420 3045 
Q 2306 3072 2169 3072 
Q 1681 3072 1420 2755 
Q 1159 2438 1159 1844 
L 1159 0 
L 581 0 
L 581 3500 
L 1159 3500 
L 1159 2956 
Q 1341 3275 1631 3429 
Q 1922 3584 2338 3584 
Q 2397 3584 2469 3576 
Q 2541 3569 2628 3553 
L 2631 2963 
z
" transform="scale(0.015625)"/>
      </defs>
      <use xlink:href="#DejaVuSans-46"/>
      <use xlink:href="#DejaVuSans-65" x="52.019531"/>
      <use xlink:href="#DejaVuSans-61" x="113.542969"/>
      <use xlink:href="#DejaVuSans-74" x="174.822266"/>
      <use xlink:href="#DejaVuSans-75" x="214.03125"/>
      <use xlink:href="#DejaVuSans-72" x="277.410156"/>
      <use xlink:href="#DejaVuSans-65" x="316.273438"/>
     </g>
    </g>
   </g>
   <g id="matplotlib.axis_2">
    <g id="ytick_1">
     <g id="line2d_6">
      <defs>
       <path id="md45d41ea65" d="M 0 0 
L -3.5 0 
" style="stroke: #000000; stroke-width: 0.8"/>
      </defs>
      <g>
       <use xlink:href="#md45d41ea65" x="90" y="255.643738" style="stroke: #000000; stroke-width: 0.8"/>
      </g>
     </g>
     <g id="text_7">
      <!-- −100 -->
      <g transform="translate(55.532812 259.442956) scale(0.1 -0.1)">
       <use xlink:href="#DejaVuSans-2212"/>
       <use xlink:href="#DejaVuSans-31" x="83.789062"/>
       <use xlink:href="#DejaVuSans-30" x="147.412109"/>
       <use xlink:href="#DejaVuSans-30" x="211.035156"/>
      </g>
     </g>
    </g>
    <g id="ytick_2">
     <g id="line2d_7">
      <g>
       <use xlink:href="#md45d41ea65" x="90" y="225.566016" style="stroke: #000000; stroke-width: 0.8"/>
      </g>
     </g>
     <g id="text_8">
      <!-- −75 -->
      <g transform="translate(61.895313 229.365235) scale(0.1 -0.1)">
       <defs>
        <path id="DejaVuSans-37" d="M 525 4666 
L 3525 4666 
L 3525 4397 
L 1831 0 
L 1172 0 
L 2766 4134 
L 525 4134 
L 525 4666 
z
" transform="scale(0.015625)"/>
        <path id="DejaVuSans-35" d="M 691 4666 
L 3169 4666 
L 3169 4134 
L 1269 4134 
L 1269 2991 
Q 1406 3038 1543 3061 
Q 1681 3084 1819 3084 
Q 2600 3084 3056 2656 
Q 3513 2228 3513 1497 
Q 3513 744 3044 326 
Q 2575 -91 1722 -91 
Q 1428 -91 1123 -41 
Q 819 9 494 109 
L 494 744 
Q 775 591 1075 516 
Q 1375 441 1709 441 
Q 2250 441 2565 725 
Q 2881 1009 2881 1497 
Q 2881 1984 2565 2268 
Q 2250 2553 1709 2553 
Q 1456 2553 1204 2497 
Q 953 2441 691 2322 
L 691 4666 
z
" transform="scale(0.015625)"/>
       </defs>
       <use xlink:href="#DejaVuSans-2212"/>
       <use xlink:href="#DejaVuSans-37" x="83.789062"/>
       <use xlink:href="#DejaVuSans-35" x="147.412109"/>
      </g>
     </g>
    </g>
    <g id="ytick_3">
     <g id="line2d_8">
      <g>
       <use xlink:href="#md45d41ea65" x="90" y="195.488295" style="stroke: #000000; stroke-width: 0.8"/>
      </g>
     </g>
     <g id="text_9">
      <!-- −50 -->
      <g transform="translate(61.895313 199.287514) scale(0.1 -0.1)">
       <use xlink:href="#DejaVuSans-2212"/>
       <use xlink:href="#DejaVuSans-35" x="83.789062"/>
       <use xlink:href="#DejaVuSans-30" x="147.412109"/>
      </g>
     </g>
    </g>
    <g id="ytick_4">
     <g id="line2d_9">
      <g>
       <use xlink:href="#md45d41ea65" x="90" y="165.410574" style="stroke: #000000; stroke-width: 0.8"/>
      </g>
     </g>
     <g id="text_10">
      <!-- −25 -->
      <g transform="translate(61.895313 169.209793) scale(0.1 -0.1)">
       <use xlink:href="#DejaVuSans-2212"/>
       <use xlink:href="#DejaVuSans-32" x="83.789062"/>
       <use xlink:href="#DejaVuSans-35" x="147.412109"/>
      </g>
     </g>
    </g>
    <g id="ytick_5">
     <g id="line2d_10">
      <g>
       <use xlink:href="#md45d41ea65" x="90" y="135.332853" style="stroke: #000000; stroke-width: 0.8"/>
      </g>
     </g>
     <g id="text_11">
      <!-- 0 -->
      <g transform="translate(76.6375 139.132072) scale(0.1 -0.1)">
       <use xlink:href="#DejaVuSans-30"/>
      </g>
     </g>
    </g>
    <g id="ytick_6">
     <g id="line2d_11">
      <g>
       <use xlink:href="#md45d41ea65" x="90" y="105.255132" style="stroke: #000000; stroke-width: 0.8"/>
      </g>
     </g>
     <g id="text_12">
      <!-- 25 -->
      <g transform="translate(70.275 109.05435) scale(0.1 -0.1)">
       <use xlink:href="#DejaVuSans-32"/>
       <use xlink:href="#DejaVuSans-35" x="63.623047"/>
      </g>
     </g>
    </g>
    <g id="ytick_7">
     <g id="line2d_12">
      <g>
       <use xlink:href="#md45d41ea65" x="90" y="75.177411" style="stroke: #000000; stroke-width: 0.8"/>
      </g>
     </g>
     <g id="text_13">
      <!-- 50 -->
      <g transform="translate(70.275 78.976629) scale(0.1 -0.1)">
       <use xlink:href="#DejaVuSans-35"/>
       <use xlink:href="#DejaVuSans-30" x="63.623047"/>
      </g>
     </g>
    </g>
    <g id="ytick_8">
     <g id="line2d_13">
      <g>
       <use xlink:href="#md45d41ea65" x="90" y="45.099689" style="stroke: #000000; stroke-width: 0.8"/>
      </g>
     </g>
     <g id="text_14">
      <!-- 75 -->
      <g transform="translate(70.275 48.898908) scale(0.1 -0.1)">
       <use xlink:href="#DejaVuSans-37"/>
       <use xlink:href="#DejaVuSans-35" x="63.623047"/>
      </g>
     </g>
    </g>
    <g id="text_15">
     <!-- Target (y) -->
     <g transform="translate(49.453125 169.361875) rotate(-90) scale(0.1 -0.1)">
      <defs>
       <path id="DejaVuSans-54" d="M -19 4666 
L 3928 4666 
L 3928 4134 
L 2272 4134 
L 2272 0 
L 1638 0 
L 1638 4134 
L -19 4134 
L -19 4666 
z
" transform="scale(0.015625)"/>
       <path id="DejaVuSans-67" d="M 2906 1791 
Q 2906 2416 2648 2759 
Q 2391 3103 1925 3103 
Q 1463 3103 1205 2759 
Q 947 2416 947 1791 
Q 947 1169 1205 825 
Q 1463 481 1925 481 
Q 2391 481 2648 825 
Q 2906 1169 2906 1791 
z
M 3481 434 
Q 3481 -459 3084 -895 
Q 2688 -1331 1869 -1331 
Q 1566 -1331 1297 -1286 
Q 1028 -1241 775 -1147 
L 775 -588 
Q 1028 -725 1275 -790 
Q 1522 -856 1778 -856 
Q 2344 -856 2625 -561 
Q 2906 -266 2906 331 
L 2906 616 
Q 2728 306 2450 153 
Q 2172 0 1784 0 
Q 1141 0 747 490 
Q 353 981 353 1791 
Q 353 2603 747 3093 
Q 1141 3584 1784 3584 
Q 2172 3584 2450 3431 
Q 2728 3278 2906 2969 
L 2906 3500 
L 3481 3500 
L 3481 434 
z
" transform="scale(0.015625)"/>
       <path id="DejaVuSans-20" transform="scale(0.015625)"/>
       <path id="DejaVuSans-28" d="M 1984 4856 
Q 1566 4138 1362 3434 
Q 1159 2731 1159 2009 
Q 1159 1288 1364 580 
Q 1569 -128 1984 -844 
L 1484 -844 
Q 1016 -109 783 600 
Q 550 1309 550 2009 
Q 550 2706 781 3412 
Q 1013 4119 1484 4856 
L 1984 4856 
z
" transform="scale(0.015625)"/>
       <path id="DejaVuSans-79" d="M 2059 -325 
Q 1816 -950 1584 -1140 
Q 1353 -1331 966 -1331 
L 506 -1331 
L 506 -850 
L 844 -850 
Q 1081 -850 1212 -737 
Q 1344 -625 1503 -206 
L 1606 56 
L 191 3500 
L 800 3500 
L 1894 763 
L 2988 3500 
L 3597 3500 
L 2059 -325 
z
" transform="scale(0.015625)"/>
       <path id="DejaVuSans-29" d="M 513 4856 
L 1013 4856 
Q 1481 4119 1714 3412 
Q 1947 2706 1947 2009 
Q 1947 1309 1714 600 
Q 1481 -109 1013 -844 
L 513 -844 
Q 928 -128 1133 580 
Q 1338 1288 1338 2009 
Q 1338 2731 1133 3434 
Q 928 4138 513 4856 
z
" transform="scale(0.015625)"/>
      </defs>
      <use xlink:href="#DejaVuSans-54"/>
      <use xlink:href="#DejaVuSans-61" x="44.583984"/>
      <use xlink:href="#DejaVuSans-72" x="105.863281"/>
      <use xlink:href="#DejaVuSans-67" x="145.226562"/>
      <use xlink:href="#DejaVuSans-65" x="208.703125"/>
      <use xlink:href="#DejaVuSans-74" x="270.226562"/>
      <use xlink:href="#DejaVuSans-20" x="309.435547"/>
      <use xlink:href="#DejaVuSans-28" x="341.222656"/>
      <use xlink:href="#DejaVuSans-79" x="380.236328"/>
      <use xlink:href="#DejaVuSans-29" x="439.416016"/>
     </g>
    </g>
   </g>
   <g id="line2d_14">
    <path d="M 364.35894 129.983962 
L 450.281774 129.983962 
L 203.229821 129.983962 
L 459.278197 129.983962 
L 362.54989 129.983962 
L 525.475262 129.983962 
L 307.066605 129.983962 
L 404.745597 129.983962 
L 506.253804 129.983962 
L 355.027668 129.983962 
L 308.301871 129.983962 
L 548.889185 129.983962 
L 525.636038 129.983962 
L 309.053245 129.983962 
L 269.216708 129.983962 
L 399.026713 129.983962 
L 371.081684 129.983962 
L 307.497841 129.983962 
L 318.212588 129.983962 
L 238.223609 129.983962 
L 429.736541 129.983962 
L 393.762744 129.983962 
L 493.506596 129.983962 
L 340.405929 129.983962 
L 347.52192 129.983962 
L 182.422892 129.983962 
L 416.795925 129.983962 
L 199.94425 129.983962 
L 251.176972 129.983962 
L 417.662727 129.983962 
L 260.433897 129.983962 
L 319.82324 129.983962 
L 310.455887 129.983962 
L 115.363636 129.983962 
L 258.672147 129.983962 
L 121.956652 129.983962 
L 450.062732 129.983962 
L 463.492291 129.983962 
L 498.981461 129.983962 
L 181.88971 129.983962 
L 354.404817 129.983962 
L 334.88067 129.983962 
L 482.22785 129.983962 
L 204.19805 129.983962 
L 355.500693 129.983962 
L 524.589221 129.983962 
L 185.546547 129.983962 
L 566.20835 129.983962 
L 467.219634 129.983962 
L 417.473543 129.983962 
L 390.00699 129.983962 
L 240.744463 129.983962 
L 352.452378 129.983962 
L 419.210973 129.983962 
L 202.269442 129.983962 
L 292.348178 129.983962 
L 119.162345 129.983962 
L 397.809536 129.983962 
L 416.709665 129.983962 
L 238.64915 129.983962 
L 365.770083 129.983962 
L 352.661985 129.983962 
L 500.281844 129.983962 
L 412.978897 129.983962 
L 371.210737 129.983962 
L 361.06747 129.983962 
L 220.289071 129.983962 
L 245.792335 129.983962 
L 319.686077 129.983962 
L 226.166133 129.983962 
L 466.256883 129.983962 
L 146.660175 129.983962 
L 390.352643 129.983962 
L 256.347637 129.983962 
L 242.296168 129.983962 
L 218.270564 129.983962 
L 294.628545 129.983962 
L 622.636364 129.983962 
L 459.291475 129.983962 
L 254.145982 129.983962 
L 480.406145 129.983962 
L 253.890023 129.983962 
L 417.631267 129.983962 
L 297.883929 129.983962 
L 350.224799 129.983962 
L 378.723966 129.983962 
L 341.418703 129.983962 
L 444.032054 129.983962 
L 353.568887 129.983962 
L 356.287649 129.983962 
L 262.583202 129.983962 
L 316.76772 129.983962 
L 312.715913 129.983962 
L 356.041256 129.983962 
L 321.312101 129.983962 
L 504.168358 129.983962 
L 562.916798 129.983962 
L 214.859982 129.983962 
L 128.373419 129.983962 
L 380.164085 129.983962 
" clip-path="url(#p39e72a77a8)" style="fill: none; stroke: #008000; stroke-width: 1.5; stroke-linecap: square"/>
   </g>
   <g id="line2d_15">
    <path d="M 364.35894 128.237921 
L 450.281774 119.546096 
L 203.229821 144.537501 
L 459.278197 118.636032 
L 362.54989 128.420922 
L 525.475262 111.939636 
L 307.066605 134.033528 
L 404.745597 124.152467 
L 506.253804 113.88405 
L 355.027668 129.181859 
L 308.301871 133.90857 
L 548.889185 109.571119 
L 525.636038 111.923372 
L 309.053245 133.832562 
L 269.216708 137.862366 
L 399.026713 124.730981 
L 371.081684 127.557858 
L 307.497841 133.989904 
L 318.212588 132.906017 
L 238.223609 140.997582 
L 429.736541 121.624421 
L 393.762744 125.263476 
L 493.506596 115.173538 
L 340.405929 130.660972 
L 347.52192 129.941129 
L 182.422892 146.642298 
L 416.795925 122.933474 
L 199.94425 144.869864 
L 251.176972 139.687239 
L 417.662727 122.84579 
L 260.433897 138.750822 
L 319.82324 132.743086 
L 310.455887 133.690673 
L 115.363636 153.425912 
L 258.672147 138.929038 
L 121.956652 152.758972 
L 450.062732 119.568254 
L 463.492291 118.20974 
L 498.981461 114.619709 
L 181.88971 146.696234 
L 354.404817 129.244865 
L 334.88067 131.219899 
L 482.22785 116.314479 
L 204.19805 144.439556 
L 355.500693 129.134008 
L 524.589221 112.029266 
L 185.546547 146.326314 
L 566.20835 107.819138 
L 467.219634 117.832688 
L 417.473543 122.864928 
L 390.00699 125.643403 
L 240.744463 140.742576 
L 352.452378 129.442371 
L 419.210973 122.689172 
L 202.269442 144.634651 
L 292.348178 135.522422 
L 119.162345 153.04164 
L 397.809536 124.854109 
L 416.709665 122.9422 
L 238.64915 140.954535 
L 365.770083 128.095172 
L 352.661985 129.421167 
L 500.281844 114.488164 
L 412.978897 123.319599 
L 371.210737 127.544804 
L 361.06747 128.570881 
L 220.289071 142.811813 
L 245.792335 140.231941 
L 319.686077 132.756961 
L 226.166133 142.217298 
L 466.256883 117.930078 
L 146.660175 150.260001 
L 390.352643 125.608437 
L 256.347637 139.164182 
L 242.296168 140.585608 
L 218.270564 143.016002 
L 294.628545 135.291743 
L 622.636364 102.110965 
L 459.291475 118.634688 
L 254.145982 139.386898 
L 480.406145 116.49876 
L 253.890023 139.412791 
L 417.631267 122.848972 
L 297.883929 134.962433 
L 350.224799 129.66771 
L 378.723966 126.784777 
L 341.418703 130.558521 
L 444.032054 120.178308 
L 353.568887 129.329427 
L 356.287649 129.054401 
L 262.583202 138.533402 
L 316.76772 133.052177 
L 312.715913 133.462052 
L 356.041256 129.079325 
L 321.312101 132.592475 
L 504.168358 114.09501 
L 562.916798 108.152106 
L 214.859982 143.361011 
L 128.373419 152.109862 
L 380.164085 126.639096 
" clip-path="url(#p39e72a77a8)" style="fill: none; stroke: #ff0000; stroke-width: 1.5; stroke-linecap: square"/>
   </g>
   <g id="patch_3">
    <path d="M 90 256.32 
L 90 34.56 
" style="fill: none; stroke: #000000; stroke-width: 0.8; stroke-linejoin: miter; stroke-linecap: square"/>
   </g>
   <g id="patch_4">
    <path d="M 648 256.32 
L 648 34.56 
" style="fill: none; stroke: #000000; stroke-width: 0.8; stroke-linejoin: miter; stroke-linecap: square"/>
   </g>
   <g id="patch_5">
    <path d="M 90 256.32 
L 648 256.32 
" style="fill: none; stroke: #000000; stroke-width: 0.8; stroke-linejoin: miter; stroke-linecap: square"/>
   </g>
   <g id="patch_6">
    <path d="M 90 34.56 
L 648 34.56 
" style="fill: none; stroke: #000000; stroke-width: 0.8; stroke-linejoin: miter; stroke-linecap: square"/>
   </g>
   <g id="text_16">
    <!-- Scatter example plot -->
    <g transform="translate(306.211875 28.56) scale(0.12 -0.12)">
     <defs>
      <path id="DejaVuSans-53" d="M 3425 4513 
L 3425 3897 
Q 3066 4069 2747 4153 
Q 2428 4238 2131 4238 
Q 1616 4238 1336 4038 
Q 1056 3838 1056 3469 
Q 1056 3159 1242 3001 
Q 1428 2844 1947 2747 
L 2328 2669 
Q 3034 2534 3370 2195 
Q 3706 1856 3706 1288 
Q 3706 609 3251 259 
Q 2797 -91 1919 -91 
Q 1588 -91 1214 -16 
Q 841 59 441 206 
L 441 856 
Q 825 641 1194 531 
Q 1563 422 1919 422 
Q 2459 422 2753 634 
Q 3047 847 3047 1241 
Q 3047 1584 2836 1778 
Q 2625 1972 2144 2069 
L 1759 2144 
Q 1053 2284 737 2584 
Q 422 2884 422 3419 
Q 422 4038 858 4394 
Q 1294 4750 2059 4750 
Q 2388 4750 2728 4690 
Q 3069 4631 3425 4513 
z
" transform="scale(0.015625)"/>
      <path id="DejaVuSans-63" d="M 3122 3366 
L 3122 2828 
Q 2878 2963 2633 3030 
Q 2388 3097 2138 3097 
Q 1578 3097 1268 2742 
Q 959 2388 959 1747 
Q 959 1106 1268 751 
Q 1578 397 2138 397 
Q 2388 397 2633 464 
Q 2878 531 3122 666 
L 3122 134 
Q 2881 22 2623 -34 
Q 2366 -91 2075 -91 
Q 1284 -91 818 406 
Q 353 903 353 1747 
Q 353 2603 823 3093 
Q 1294 3584 2113 3584 
Q 2378 3584 2631 3529 
Q 2884 3475 3122 3366 
z
" transform="scale(0.015625)"/>
      <path id="DejaVuSans-78" d="M 3513 3500 
L 2247 1797 
L 3578 0 
L 2900 0 
L 1881 1375 
L 863 0 
L 184 0 
L 1544 1831 
L 300 3500 
L 978 3500 
L 1906 2253 
L 2834 3500 
L 3513 3500 
z
" transform="scale(0.015625)"/>
      <path id="DejaVuSans-6d" d="M 3328 2828 
Q 3544 3216 3844 3400 
Q 4144 3584 4550 3584 
Q 5097 3584 5394 3201 
Q 5691 2819 5691 2113 
L 5691 0 
L 5113 0 
L 5113 2094 
Q 5113 2597 4934 2840 
Q 4756 3084 4391 3084 
Q 3944 3084 3684 2787 
Q 3425 2491 3425 1978 
L 3425 0 
L 2847 0 
L 2847 2094 
Q 2847 2600 2669 2842 
Q 2491 3084 2119 3084 
Q 1678 3084 1418 2786 
Q 1159 2488 1159 1978 
L 1159 0 
L 581 0 
L 581 3500 
L 1159 3500 
L 1159 2956 
Q 1356 3278 1631 3431 
Q 1906 3584 2284 3584 
Q 2666 3584 2933 3390 
Q 3200 3197 3328 2828 
z
" transform="scale(0.015625)"/>
      <path id="DejaVuSans-70" d="M 1159 525 
L 1159 -1331 
L 581 -1331 
L 581 3500 
L 1159 3500 
L 1159 2969 
Q 1341 3281 1617 3432 
Q 1894 3584 2278 3584 
Q 2916 3584 3314 3078 
Q 3713 2572 3713 1747 
Q 3713 922 3314 415 
Q 2916 -91 2278 -91 
Q 1894 -91 1617 61 
Q 1341 213 1159 525 
z
M 3116 1747 
Q 3116 2381 2855 2742 
Q 2594 3103 2138 3103 
Q 1681 3103 1420 2742 
Q 1159 2381 1159 1747 
Q 1159 1113 1420 752 
Q 1681 391 2138 391 
Q 2594 391 2855 752 
Q 3116 1113 3116 1747 
z
" transform="scale(0.015625)"/>
      <path id="DejaVuSans-6c" d="M 603 4863 
L 1178 4863 
L 1178 0 
L 603 0 
L 603 4863 
z
" transform="scale(0.015625)"/>
      <path id="DejaVuSans-6f" d="M 1959 3097 
Q 1497 3097 1228 2736 
Q 959 2375 959 1747 
Q 959 1119 1226 758 
Q 1494 397 1959 397 
Q 2419 397 2687 759 
Q 2956 1122 2956 1747 
Q 2956 2369 2687 2733 
Q 2419 3097 1959 3097 
z
M 1959 3584 
Q 2709 3584 3137 3096 
Q 3566 2609 3566 1747 
Q 3566 888 3137 398 
Q 2709 -91 1959 -91 
Q 1206 -91 779 398 
Q 353 888 353 1747 
Q 353 2609 779 3096 
Q 1206 3584 1959 3584 
z
" transform="scale(0.015625)"/>
     </defs>
     <use xlink:href="#DejaVuSans-53"/>
     <use xlink:href="#DejaVuSans-63" x="63.476562"/>
     <use xlink:href="#DejaVuSans-61" x="118.457031"/>
     <use xlink:href="#DejaVuSans-74" x="179.736328"/>
     <use xlink:href="#DejaVuSans-74" x="218.945312"/>
     <use xlink:href="#DejaVuSans-65" x="258.154297"/>
     <use xlink:href="#DejaVuSans-72" x="319.677734"/>
     <use xlink:href="#DejaVuSans-20" x="360.791016"/>
     <use xlink:href="#DejaVuSans-65" x="392.578125"/>
     <use xlink:href="#DejaVuSans-78" x="452.351562"/>
     <use xlink:href="#DejaVuSans-61" x="511.53125"/>
     <use xlink:href="#DejaVuSans-6d" x="572.810547"/>
     <use xlink:href="#DejaVuSans-70" x="670.222656"/>
     <use xlink:href="#DejaVuSans-6c" x="733.699219"/>
     <use xlink:href="#DejaVuSans-65" x="761.482422"/>
     <use xlink:href="#DejaVuSans-20" x="823.005859"/>
     <use xlink:href="#DejaVuSans-70" x="854.792969"/>
     <use xlink:href="#DejaVuSans-6c" x="918.269531"/>
     <use xlink:href="#DejaVuSans-6f" x="946.052734"/>
     <use xlink:href="#DejaVuSans-74" x="1007.234375"/>
    </g>
   </g>
   <g id="legend_1">
    <g id="patch_7">
     <path d="M 520.05 251.32 
L 641 251.32 
Q 643 251.32 643 249.32 
L 643 206.285625 
Q 643 204.285625 641 204.285625 
L 520.05 204.285625 
Q 518.05 204.285625 518.05 206.285625 
L 518.05 249.32 
Q 518.05 251.32 520.05 251.32 
z
" style="fill: #ffffff; opacity: 0.8; stroke: #cccccc; stroke-linejoin: miter"/>
    </g>
    <g id="PathCollection_2">
     <g>
      <use xlink:href="#m472042721e" x="532.05" y="213.259062" style="fill: #1f77b4; stroke: #1f77b4"/>
     </g>
    </g>
    <g id="text_17">
     <!-- Random data -->
     <g transform="translate(550.05 215.884062) scale(0.1 -0.1)">
      <defs>
       <path id="DejaVuSans-52" d="M 2841 2188 
Q 3044 2119 3236 1894 
Q 3428 1669 3622 1275 
L 4263 0 
L 3584 0 
L 2988 1197 
Q 2756 1666 2539 1819 
Q 2322 1972 1947 1972 
L 1259 1972 
L 1259 0 
L 628 0 
L 628 4666 
L 2053 4666 
Q 2853 4666 3247 4331 
Q 3641 3997 3641 3322 
Q 3641 2881 3436 2590 
Q 3231 2300 2841 2188 
z
M 1259 4147 
L 1259 2491 
L 2053 2491 
Q 2509 2491 2742 2702 
Q 2975 2913 2975 3322 
Q 2975 3731 2742 3939 
Q 2509 4147 2053 4147 
L 1259 4147 
z
" transform="scale(0.015625)"/>
       <path id="DejaVuSans-6e" d="M 3513 2113 
L 3513 0 
L 2938 0 
L 2938 2094 
Q 2938 2591 2744 2837 
Q 2550 3084 2163 3084 
Q 1697 3084 1428 2787 
Q 1159 2491 1159 1978 
L 1159 0 
L 581 0 
L 581 3500 
L 1159 3500 
L 1159 2956 
Q 1366 3272 1645 3428 
Q 1925 3584 2291 3584 
Q 2894 3584 3203 3211 
Q 3513 2838 3513 2113 
z
" transform="scale(0.015625)"/>
       <path id="DejaVuSans-64" d="M 2906 2969 
L 2906 4863 
L 3481 4863 
L 3481 0 
L 2906 0 
L 2906 525 
Q 2725 213 2448 61 
Q 2172 -91 1784 -91 
Q 1150 -91 751 415 
Q 353 922 353 1747 
Q 353 2572 751 3078 
Q 1150 3584 1784 3584 
Q 2172 3584 2448 3432 
Q 2725 3281 2906 2969 
z
M 947 1747 
Q 947 1113 1208 752 
Q 1469 391 1925 391 
Q 2381 391 2643 752 
Q 2906 1113 2906 1747 
Q 2906 2381 2643 2742 
Q 2381 3103 1925 3103 
Q 1469 3103 1208 2742 
Q 947 2381 947 1747 
z
" transform="scale(0.015625)"/>
      </defs>
      <use xlink:href="#DejaVuSans-52"/>
      <use xlink:href="#DejaVuSans-61" x="67.232422"/>
      <use xlink:href="#DejaVuSans-6e" x="128.511719"/>
      <use xlink:href="#DejaVuSans-64" x="191.890625"/>
      <use xlink:href="#DejaVuSans-6f" x="255.367188"/>
      <use xlink:href="#DejaVuSans-6d" x="316.548828"/>
      <use xlink:href="#DejaVuSans-20" x="413.960938"/>
      <use xlink:href="#DejaVuSans-64" x="445.748047"/>
      <use xlink:href="#DejaVuSans-61" x="509.224609"/>
      <use xlink:href="#DejaVuSans-74" x="570.503906"/>
      <use xlink:href="#DejaVuSans-61" x="609.712891"/>
     </g>
    </g>
    <g id="line2d_16">
     <path d="M 522.05 227.062187 
L 532.05 227.062187 
L 542.05 227.062187 
" style="fill: none; stroke: #008000; stroke-width: 1.5; stroke-linecap: square"/>
    </g>
    <g id="text_18">
     <!-- Mean -->
     <g transform="translate(550.05 230.562187) scale(0.1 -0.1)">
      <defs>
       <path id="DejaVuSans-4d" d="M 628 4666 
L 1569 4666 
L 2759 1491 
L 3956 4666 
L 4897 4666 
L 4897 0 
L 4281 0 
L 4281 4097 
L 3078 897 
L 2444 897 
L 1241 4097 
L 1241 0 
L 628 0 
L 628 4666 
z
" transform="scale(0.015625)"/>
      </defs>
      <use xlink:href="#DejaVuSans-4d"/>
      <use xlink:href="#DejaVuSans-65" x="86.279297"/>
      <use xlink:href="#DejaVuSans-61" x="147.802734"/>
      <use xlink:href="#DejaVuSans-6e" x="209.082031"/>
     </g>
    </g>
    <g id="line2d_17">
     <path d="M 522.05 241.740313 
L 532.05 241.740313 
L 542.05 241.740313 
" style="fill: none; stroke: #ff0000; stroke-width: 1.5; stroke-linecap: square"/>
    </g>
    <g id="text_19">
     <!-- Linear Regression -->
     <g transform="translate(550.05 245.240313) scale(0.1 -0.1)">
      <defs>
       <path id="DejaVuSans-4c" d="M 628 4666 
L 1259 4666 
L 1259 531 
L 3531 531 
L 3531 0 
L 628 0 
L 628 4666 
z
" transform="scale(0.015625)"/>
       <path id="DejaVuSans-69" d="M 603 3500 
L 1178 3500 
L 1178 0 
L 603 0 
L 603 3500 
z
M 603 4863 
L 1178 4863 
L 1178 4134 
L 603 4134 
L 603 4863 
z
" transform="scale(0.015625)"/>
       <path id="DejaVuSans-73" d="M 2834 3397 
L 2834 2853 
Q 2591 2978 2328 3040 
Q 2066 3103 1784 3103 
Q 1356 3103 1142 2972 
Q 928 2841 928 2578 
Q 928 2378 1081 2264 
Q 1234 2150 1697 2047 
L 1894 2003 
Q 2506 1872 2764 1633 
Q 3022 1394 3022 966 
Q 3022 478 2636 193 
Q 2250 -91 1575 -91 
Q 1294 -91 989 -36 
Q 684 19 347 128 
L 347 722 
Q 666 556 975 473 
Q 1284 391 1588 391 
Q 1994 391 2212 530 
Q 2431 669 2431 922 
Q 2431 1156 2273 1281 
Q 2116 1406 1581 1522 
L 1381 1569 
Q 847 1681 609 1914 
Q 372 2147 372 2553 
Q 372 3047 722 3315 
Q 1072 3584 1716 3584 
Q 2034 3584 2315 3537 
Q 2597 3491 2834 3397 
z
" transform="scale(0.015625)"/>
      </defs>
      <use xlink:href="#DejaVuSans-4c"/>
      <use xlink:href="#DejaVuSans-69" x="55.712891"/>
      <use xlink:href="#DejaVuSans-6e" x="83.496094"/>
      <use xlink:href="#DejaVuSans-65" x="146.875"/>
      <use xlink:href="#DejaVuSans-61" x="208.398438"/>
      <use xlink:href="#DejaVuSans-72" x="269.677734"/>
      <use xlink:href="#DejaVuSans-20" x="310.791016"/>
      <use xlink:href="#DejaVuSans-52" x="342.578125"/>
      <use xlink:href="#DejaVuSans-65" x="407.560547"/>
      <use xlink:href="#DejaVuSans-67" x="469.083984"/>
      <use xlink:href="#DejaVuSans-72" x="532.560547"/>
      <use xlink:href="#DejaVuSans-65" x="571.423828"/>
      <use xlink:href="#DejaVuSans-73" x="632.947266"/>
      <use xlink:href="#DejaVuSans-73" x="685.046875"/>
      <use xlink:href="#DejaVuSans-69" x="737.146484"/>
      <use xlink:href="#DejaVuSans-6f" x="764.929688"/>
      <use xlink:href="#DejaVuSans-6e" x="826.111328"/>
     </g>
    </g>
   </g>
  </g>
 </g>
 <defs>
  <clipPath id="p39e72a77a8">
   <rect x="90" y="34.56" width="558" height="221.76"/>
  </clipPath>
 </defs>
</svg>
